<svg xmlns="http://www.w3.org/2000/svg" viewBox="0 0 346.84 298.82"><defs><style>.cls-1{fill:none;stroke:#8d85d5;stroke-miterlimit:10;stroke-width:7px;}</style></defs><g id="Слой_2" data-name="Слой 2"><g id="Слой_1-2" data-name="Слой 1"><g id="Слой_2-2" data-name="Слой 2"><g id="Слой_1-2-2" data-name="Слой 1-2"><path class="cls-1" d="M29.35,105.87,26.4,116C23.81,125,24.81,141.25,25.09,145a1.39,1.39,0,0,1-.59,1.25C22,148,13.07,153.89,9,149.59c-3.7-3.86,6.58-3.71,11.5-3.44a1.32,1.32,0,0,0,1.42-1.23,1.29,1.29,0,0,0-.18-.77c-3.2-5.81-11.47-21.45-8.82-23.58C16.18,118,25.68,131,25.19,144.89a161.26,161.26,0,0,0,2.12,28.78s0,1.64,3.92,3.27,11.45-3.1,12.27-5.72-1.92-3.6-7.53-5.56c-3.14-1.11-8.79,3.19-8.79,3.19s30.38-29.69,15-26.91-15.7,18-16.36,27.15a29.84,29.84,0,0,0,.19,5c.76,7,3.24,16.52,4.82,22.15a1.42,1.42,0,0,1-1,1.75,1.44,1.44,0,0,1-1.32-.31c-9.52-8.51-33.36-30.61-22-28.63,14.06,2.45,24.85,27,24.86,27h0s3,8,8.67,22.57a120.59,120.59,0,0,0,10.9,21.61,1.36,1.36,0,0,1-.36,1.89h0c-1.52,1-4.4,3-7.8,5.56-5,3.76-9.81,17.88-3.49,15.7s8.9-10.58,8.9-10.58l2-7.21a1.43,1.43,0,0,0-1-1.78,1.47,1.47,0,0,0-.66,0c-2.53.48-7.11,1.25-13.41,1.94-7.61.82-19.49-3.37-24.78-5.44a1.43,1.43,0,0,1-.17-2.58c4.69-2.63,14.88-7.79,21.89-7.47,9.38.44,19.63,11.13,19.63,11.13s.32.51.92,1.42a194.35,194.35,0,0,0,21.44,27c.54.56,1.08,1.11,1.63,1.66a86,86,0,0,1,8.59,9.8,25.83,25.83,0,0,0,20.8,10.48h0a1.43,1.43,0,0,0,1.44-1.35l3.19-52.3s0-1.74,3-2.18c2.67-.38,38.78-10.15,47.93-12.63a7,7,0,0,1,5.11.48,3.59,3.59,0,0,1,1.26,1.47c-.21,1.52-5,65.2-5.88,66.51s-6.62,2.18-6.62,2.18-6.25,2.12-8.07-1.46c-1.22-2.4,4.77-168.11,5.47-184.93a1.43,1.43,0,0,1,1.44-1.37H195a1.43,1.43,0,0,1,1.45,1.41L200.62,293a1.44,1.44,0,0,1-1.43,1.47h-11.7a1.45,1.45,0,0,1-1.44-1.44h0L188,58.7a1.5,1.5,0,0,1,.56-1.13L228.16,26.7a1.44,1.44,0,0,1,2.33,1.16l-1.26,93.68a1.45,1.45,0,0,0,.94,1.37l19,7.12a1.42,1.42,0,0,1,.93,1.43l-6,110.1a1.45,1.45,0,0,1-1.2,1.34l-11.58,1.93a1.42,1.42,0,0,1-1.65-1.16,1.07,1.07,0,0,1,0-.25l-.2-58.47a4.57,4.57,0,0,1,4.55-4.59h0l45.58.18a6.35,6.35,0,0,1,6.33,6.09l4.27,104.53a1.44,1.44,0,0,1-1.37,1.5h-.07l-56.87.21a1.45,1.45,0,0,1-1.44-1.38l-1.41-33.08a1.45,1.45,0,0,1,1.39-1.51h.07l98.77.8a8.14,8.14,0,0,1,8.09,8.16v19c0,5.3,4.16,10.46,9.47,10.46"/><path class="cls-1" d="M70.27,265.78s-7.54-9.46-10.77-18.16C54.75,234.86,54,218.41,62.28,209c13.16-15,26.17-11.45,26.17-11.45"/><line class="cls-1" x1="38.4" y1="214.49" x2="41.01" y2="200.52"/><path class="cls-1" d="M87.06,197.21a16.45,16.45,0,0,1,7.19,3.31c3,2.61,3.85,7.52,3.85,7.52"/><circle class="cls-1" cx="98.1" cy="211.64" r="3.6"/><circle class="cls-1" cx="89.95" cy="213.27" r="3.6"/><circle class="cls-1" cx="82.99" cy="211.64" r="3.6"/><circle class="cls-1" cx="101.69" cy="218.09" r="3.6"/><circle class="cls-1" cx="43.3" cy="198.44" r="3.6"/><circle class="cls-1" cx="94.5" cy="219.23" r="3.6"/><path class="cls-1" d="M87.9,198.44s-.11,5.78-1.31,7-2,2.08-2,2.08"/><circle class="cls-1" cx="78.49" cy="262.18" r="3.6"/><path class="cls-1" d="M77,272.89s-2.3-2.77-2.27-5.78a14.54,14.54,0,0,1,.63-3.59"/><circle class="cls-1" cx="73.43" cy="248.28" r="3.6"/><path class="cls-1" d="M69.53,264.73s-2.33-5.26-1.28-9.42a12,12,0,0,1,2.89-4.53"/><path class="cls-1" d="M91.6,199a14.56,14.56,0,0,1-.7,10.6"/><circle class="cls-1" cx="79.4" cy="232.58" r="3.6"/><path class="cls-1" d="M65,258.19c0-.54-9-23.43,11.6-27"/><path class="cls-1" d="M67,204.37s10-10.29,10-18.57-9.63-6.55-11.81,5.67S62.28,209,62.28,209"/><path class="cls-1" d="M25.85,100.59c-.58,2.77.82,5.41,3.12,5.89a3.87,3.87,0,0,0,3-.7,5.59,5.59,0,0,0,2.16-3.45c.58-2.77-.82-5.41-3.11-5.89S26.42,97.82,25.85,100.59Z"/><path class="cls-1" d="M31.9,106.55s1.26,5,2.65,6.67c1.6,2,6.14,1.8,7.32-.21S46,111.66,47,111.66s2.42-1,2-4-2.05-7.85-6.63-10S37,95.46,37,95.46"/><path class="cls-1" d="M33.87,97.8s6.59-3.87,7.58-7.25c.89-3,.72-11.58-5.34-9.81a20.41,20.41,0,0,1-7.1.16,8.62,8.62,0,0,1-1.4-.33c-1.34-.44-3.93-.87-5.41,1.86-1.88,3.49-.05,8,1.42,9.81A49.07,49.07,0,0,0,28,96.71"/><path class="cls-1" d="M42.54,86.3s2.67-1.58,4,2a19.44,19.44,0,0,1,1,7.42S50,99.27,50,100.8s-2.13,2.13-2.13,2.13"/><path class="cls-1" d="M28,96.71s-10.91-3.22-12.21.22a27.51,27.51,0,0,0-1.31,8.1,11.79,11.79,0,0,0-1.09,3.29c-.11,1.37.76,5.51,4.69,6.28,2.68.54,9.38-3.61,10-8"/><path class="cls-1" d="M14.74,98.18s-3.28-.54-2.46-4.36,2.29-5.34,4.42-6.27a9.41,9.41,0,0,1,4.7-.49"/><path class="cls-1" d="M56,227.3s-5.5-32.13-3.54-44.23S65.66,144,83,114.6,106.44,59.75,104.26,42s-9.38-25.51-9.38-25.51-4.14-3.28-11.56-2.62,1.75,7.41,7,8.29,7.79-.82,7.79-.82,3.55-12.65-.54-17.12S94.9,16.53,94.9,16.53"/><path class="cls-1" d="M102.91,32.47s-1.84-4.95-.49-8.38c1-2.62,4.06-5.92,5.44-7.33a.5.5,0,0,1,.71,0,.46.46,0,0,1,.15.29c.34,1.95,1,6.22.81,7.22C109.24,25.56,107.16,31.32,102.91,32.47Z"/><path class="cls-1" d="M88.46,104.48c-.28.31-.76,0-1-.53-1.4-2.91-5.1-11.29-5.38-18.13-.27-6.46,2-16.11,3-20.23.2-.8,1-.56,1.29.4,1.54,4.77,4.87,15.28,5.2,17.68C92,86.67,92.78,99.79,88.46,104.48Z"/><path class="cls-1" d="M59.54,163.75c-.46,0-.42-.66.06-1.33,2.4-3.35,9.5-12.83,16.55-18.08,6.66-5,17.83-10,22.65-12,.94-.4,1,.49.19,1.46-4.29,4.88-13.77,15.57-16.13,17.62C79.9,154,66.48,164.25,59.54,163.75Z"/><path class="cls-1" d="M100.14,80.61a.56.56,0,0,1-.32-.74s0,0,0,0c.68-1.61,2.8-6.11,6-8.09,3-1.87,9-3,11.6-3.49a.56.56,0,0,1,.64.45.54.54,0,0,1-.13.45c-1.51,2.21-4.86,7-5.86,7.88C110.84,78,104.8,82,100.14,80.61Z"/><path class="cls-1" d="M68,142.24s3.4-6.45,3.16-19,1.06-16.39-5.48-28.84A80,80,0,0,1,59,77.94a.89.89,0,0,0-1.1-.63.91.91,0,0,0-.65.69,66.65,66.65,0,0,0-1.53,14.57c.35,8.17,5.28,29.76,5.28,29.76Z"/><path class="cls-1" d="M106.71,100.18c-1.34.74-6.13,1.91-4.78,8s2.92,10.14,2.71,12.19,5.47-4.9,5.47-4.9l4.6,5a.82.82,0,0,0,1.14,0,.77.77,0,0,0,.24-.63l-.48-6.7s8.73,2.63,9.38,2.6a.5.5,0,0,0,.54-.44.47.47,0,0,0,0-.17l-4.23-4.76c-1-.36-3.58-7.48-6.24-10S109.88,98.46,106.71,100.18Z"/><path class="cls-1" d="M82.45,115.74s3.31-13,24.42-15.81"/></g></g></g></g></svg>